<svg version="1.2" xmlns="http://www.w3.org/2000/svg" viewBox="0 0 20 20" width="20" height="20">
	<title>eye-svg</title>
	<style>
		.s0 { fill: #ffffff } 
	</style>
	<path id="Layer" fill-rule="evenodd" class="s0" d="m20 10c0 0-3 7-10 7c-7 0-10-7-10-7c0 0 3-7 10-7c7 0 10 7 10 7zm-8.3 4.2q0.8-0.4 1.5-1q0.6-0.7 1-1.5q0.3-0.8 0.3-1.7c0-1.8-1.1-3.5-2.8-4.2c-1.7-0.7-3.6-0.3-4.9 1c-1.3 1.3-1.7 3.2-1 4.9c0.7 1.7 2.4 2.8 4.2 2.8q0.9 0 1.7-0.3zm-0.7-6.5q0.4 0.2 0.8 0.5q0.3 0.4 0.5 0.8q0.2 0.5 0.2 1c0 1-0.6 1.9-1.5 2.3c-1 0.4-2.1 0.2-2.8-0.5c-0.7-0.7-0.9-1.8-0.5-2.8c0.4-0.9 1.3-1.5 2.3-1.5q0.5 0 1 0.2z" />
</svg>